<svg width="25" height="25" viewBox="0 0 25 25" fill="none" xmlns="http://www.w3.org/2000/svg">
<path d="M12.5 12.5C14.3944 12.5 16.2112 11.8415 17.5508 10.6694C18.8903 9.49732 19.6429 7.9076 19.6429 6.25C19.6429 4.5924 18.8903 3.00269 17.5508 1.83058C16.2112 0.65848 14.3944 0 12.5 0C10.6056 0 8.78878 0.65848 7.44924 1.83058C6.10969 3.00269 5.35714 4.5924 5.35714 6.25C5.35714 7.9076 6.10969 9.49732 7.44924 10.6694C8.78878 11.8415 10.6056 12.5 12.5 12.5ZM7.14286 15.1953C3.01339 16.2549 0 19.5947 0 23.5498C0 24.3506 0.742188 25 1.65737 25H23.3426C24.2578 25 25 24.3506 25 23.5498C25 19.5947 21.9866 16.2549 17.8571 15.1953V17.6758C19.3973 18.0225 20.5357 19.248 20.5357 20.7031V22.6562C20.5357 23.0859 20.1339 23.4375 19.6429 23.4375H18.75C18.2589 23.4375 17.8571 23.0859 17.8571 22.6562C17.8571 22.2266 18.2589 21.875 18.75 21.875V20.7031C18.75 19.8389 17.952 19.1406 16.9643 19.1406C15.9766 19.1406 15.1786 19.8389 15.1786 20.7031V21.875C15.6696 21.875 16.0714 22.2266 16.0714 22.6562C16.0714 23.0859 15.6696 23.4375 15.1786 23.4375H14.2857C13.7946 23.4375 13.3929 23.0859 13.3929 22.6562V20.7031C13.3929 19.248 14.5312 18.0225 16.0714 17.6758V14.8877C15.7366 14.8584 15.3962 14.8438 15.0502 14.8438H9.94978C9.60379 14.8438 9.26339 14.8584 8.92857 14.8877V18.0811C10.2176 18.418 11.1607 19.4629 11.1607 20.7031C11.1607 22.2119 9.76004 23.4375 8.03571 23.4375C6.31138 23.4375 4.91071 22.2119 4.91071 20.7031C4.91071 19.4629 5.85379 18.418 7.14286 18.0811V15.1953ZM8.03571 21.875C8.39091 21.875 8.73157 21.7515 8.98273 21.5318C9.2339 21.312 9.375 21.0139 9.375 20.7031C9.375 20.3923 9.2339 20.0943 8.98273 19.8745C8.73157 19.6547 8.39091 19.5312 8.03571 19.5312C7.68051 19.5312 7.33986 19.6547 7.0887 19.8745C6.83753 20.0943 6.69643 20.3923 6.69643 20.7031C6.69643 21.0139 6.83753 21.312 7.0887 21.5318C7.33986 21.7515 7.68051 21.875 8.03571 21.875Z" fill="#00C4CC"/>
</svg>
