<svg width="25" height="25" viewBox="0 0 25 25" fill="none" xmlns="http://www.w3.org/2000/svg">
<path d="M7.5 2.34375C7.5 1.0498 8.33984 0 9.375 0H15.625C16.6602 0 17.5 1.0498 17.5 2.34375V25H14.375V21.0938C14.375 19.7998 13.5352 18.75 12.5 18.75C11.4648 18.75 10.625 19.7998 10.625 21.0938V25H7.5V2.34375ZM1.875 4.6875H6.25V25H1.875C0.839844 25 0 23.9502 0 22.6562V15.625H3.125C3.46875 15.625 3.75 15.2734 3.75 14.8438C3.75 14.4141 3.46875 14.0625 3.125 14.0625H0V10.9375H3.125C3.46875 10.9375 3.75 10.5859 3.75 10.1562C3.75 9.72656 3.46875 9.375 3.125 9.375H0V7.03125C0 5.7373 0.839844 4.6875 1.875 4.6875ZM23.125 4.6875C24.1602 4.6875 25 5.7373 25 7.03125V9.375H21.875C21.5312 9.375 21.25 9.72656 21.25 10.1562C21.25 10.5859 21.5312 10.9375 21.875 10.9375H25V14.0625H21.875C21.5312 14.0625 21.25 14.4141 21.25 14.8438C21.25 15.2734 21.5312 15.625 21.875 15.625H25V22.6562C25 23.9502 24.1602 25 23.125 25H18.75V4.6875H23.125ZM12.1875 3.125C11.8437 3.125 11.5625 3.47656 11.5625 3.90625V5.07812H10.625C10.2812 5.07812 10 5.42969 10 5.85938V6.64062C10 7.07031 10.2812 7.42188 10.625 7.42188H11.5625V8.59375C11.5625 9.02344 11.8437 9.375 12.1875 9.375H12.8125C13.1563 9.375 13.4375 9.02344 13.4375 8.59375V7.42188H14.375C14.7188 7.42188 15 7.07031 15 6.64062V5.85938C15 5.42969 14.7188 5.07812 14.375 5.07812H13.4375V3.90625C13.4375 3.47656 13.1563 3.125 12.8125 3.125H12.1875Z" fill="#A4ADBF"/>
</svg>
