<svg width="26" height="25" viewBox="0 0 26 25" fill="none" xmlns="http://www.w3.org/2000/svg">
<path d="M12.5002 0C11.5124 0 10.7144 0.698242 10.7144 1.5625V2.5C6.64078 3.22266 3.57158 6.37695 3.57158 10.1562V11.0742C3.57158 13.3691 2.60618 15.5859 0.865108 17.3047L0.452161 17.71C-0.0165885 18.1689 -0.128196 18.8281 0.156403 19.3896C0.441001 19.9512 1.08274 20.3125 1.78587 20.3125H23.2144C23.9176 20.3125 24.5537 19.9512 24.8439 19.3896C25.1341 18.8281 25.0169 18.1689 24.5481 17.71L24.1352 17.3047C22.3941 15.5859 21.4287 13.374 21.4287 11.0742V10.1562C21.4287 6.37695 18.3595 3.22266 14.2859 2.5V1.5625C14.2859 0.698242 13.4879 0 12.5002 0ZM15.0281 24.0869C15.6977 23.501 16.0716 22.7051 16.0716 21.875H12.5002H8.92872C8.92872 22.7051 9.30261 23.501 9.97225 24.0869C10.6419 24.6729 11.5515 25 12.5002 25C13.4488 25 14.3584 24.6729 15.0281 24.0869Z" fill="#00C4CC"/>
</svg>
